<?xml version="1.0" encoding="UTF-8"?>
<svg xmlns="http://www.w3.org/2000/svg" viewBox="25 40 276.89 89.46">
    <defs><style>.d{fill:#fff;}.e{fill:#14160e;}</style></defs>
    <g id="a"/>
    <g id="b">
        <g id="c">
            <g>
            <rect class="e" width="100%" height="100%"/>
                <g>
                    <g>
                        <path class="d" d="M115.09,100.02c-.12,.52-.23,1.04-.23,1.44,0,1.33,.92,2.02,3.17,2.42v.75h-9.28v-.75c2.13-.4,3.34-1.56,4.15-3.86l11.18-34.18h5.76l11.01,34.18c.69,2.31,1.73,3.52,3.11,3.86v.75h-12.1v-.75c1.33-.35,1.96-1.04,1.9-2.13,0-.46-.17-1.04-.35-1.73l-2.54-7.78h-13.26l-2.54,7.78Zm15.1-9.86l-5.88-18.1-5.94,18.1h11.82Z"/>
                        <path class="d" d="M146.16,68.43c3.57-1.15,4.09-1.38,7.09-3.23h1.1v35.39c0,2.02,.29,2.65,1.61,3.29v.75h-9.8v-.75c1.27-.69,1.56-1.27,1.56-3.29v-28.47c0-1.79-.29-2.31-1.56-2.59v-1.1Z"/>
                        <path class="d" d="M158.55,68.43c3.57-1.15,4.09-1.38,7.09-3.23h1.1v35.39c0,2.02,.29,2.65,1.61,3.29v.75h-9.8v-.75c1.27-.69,1.56-1.27,1.56-3.29v-28.47c0-1.79-.29-2.31-1.56-2.59v-1.1Z"/>
                        <path class="d" d="M187.25,100.19c-4.73,3.63-7.55,5.01-10.26,5.01-2.94,0-4.5-1.84-4.5-5.24v-15.68c0-1.73-.35-2.31-1.56-2.59v-1.09c3.57-1.1,4.09-1.33,7.09-3.23h1.1v21.5c0,1.67,.81,2.77,2.07,2.77,1.44,0,3.29-.98,6.05-3.11v-14.24c0-1.73-.35-2.31-1.56-2.59v-1.09c3.57-1.1,4.09-1.33,7.09-3.23h1.1v23.29c0,1.96,.29,2.59,1.56,3.23v.75h-8.18v-4.44Z"/>
                        <path class="d" d="M206.33,104.63l-7.38-22.36c-.63-1.96-1.27-2.65-2.77-3.11v-.75h10.72v.75c-1.15,.35-1.61,.81-1.61,1.56,0,.4,.12,.98,.29,1.56l5.88,17.81,5.48-17.81c.17-.46,.23-.92,.23-1.27,0-.98-.69-1.44-2.71-1.84v-.75h7.78v.75c-2.08,.46-2.82,1.15-3.52,3.29l-6.97,22.19h-5.42Z"/>
                        <path class="d" d="M222.4,80.59c3.63-1.1,4.15-1.33,7.15-3.23h1.09v23.29c0,1.96,.29,2.59,1.56,3.23v.75h-9.74v-.75c1.27-.63,1.56-1.27,1.56-3.23v-16.37c0-1.79-.35-2.36-1.61-2.59v-1.09Zm8.36-11.82c0,1.84-1.56,3.05-3.98,3.05s-3.92-1.27-3.92-3.17c0-1.73,1.61-2.94,3.98-2.94s3.92,1.21,3.92,3.05Z"/>
                        <path class="d" d="M259.75,103.01c-1.84,1.67-3,2.19-4.9,2.19-2.65,0-4.21-1.27-4.55-3.8-1.84,1.38-2.08,1.56-2.82,2.02-1.73,1.15-3.8,1.79-5.71,1.79-3.98,0-6.74-2.48-6.74-5.88,0-2.71,1.79-5.01,5.36-6.92,2.31-1.27,5.19-2.54,9.91-4.44v-5.82c0-1.96-1.15-3.17-3.05-3.17-.92,0-1.96,.4-2.42,.92q-.29,.35-1.04,2.25c-.92,2.31-2.02,3.29-3.63,3.29s-2.77-1.09-2.77-2.42c0-3.17,4.5-5.48,10.55-5.48s8.93,2.19,8.93,6.17v17.52c0,1.15,.29,1.67,.98,1.67,.4,0,.69-.17,1.04-.69l.86,.81Zm-9.45-13.43c-7.03,2.82-8.88,4.61-8.88,8.3,0,2.59,1.38,4.32,3.34,4.32,1.44,0,2.82-.58,5.53-2.36v-10.26Z"/>
                        <path class="d" d="M261.42,68.43c3.57-1.15,4.09-1.38,7.09-3.23h1.1v35.39c0,2.02,.29,2.65,1.61,3.29v.75h-9.8v-.75c1.27-.69,1.56-1.27,1.56-3.29v-28.47c0-1.79-.29-2.31-1.56-2.59v-1.1Z"/>
                    </g>
                    <g>
                        <path class="d" d="M73.39,56.87l-.6,.6c-2.36,3.78-6.76,11.13-7.9,15.3-1.58,5.78,8.6,7.69,11.6,9.35,4.15,2.3,7.21,5.82,8.59,9.43h17.86c.42-1.35,.74-2.73,.96-4.15l-30.52-30.52Z"/>
                        <path class="d" d="M65.09,84.8c-5.04-1.89-6.04-5.41-5.24-8.63,.67-2.71,4.05-8.35,6.58-12.34l-23.33,23.28c.23,1.52,.57,3,1.01,4.44h27.97c.29-3.38-3.83-5.57-6.99-6.75Z"/>
                        <path class="d" d="M45.79,95.85c.75,1.54,1.62,3.01,2.61,4.4h50.25c.85-1.2,1.62-2.47,2.3-3.79,.1-.2,.21-.4,.31-.6H45.79Z"/>
                        <path class="d" d="M78.16,104.55h-26.07c.35,.34,.71,.67,1.07,.99,1.06,.93,2.18,1.8,3.35,2.58,2.57,1.71,5.41,3.03,8.45,3.91,2.72,.79,5.59,1.22,8.56,1.22,1.72,0,3.41-.15,5.06-.42,1.19-.2,2.36-.46,3.5-.8,3.03-.88,5.88-2.2,8.45-3.91,1.59-1.05,3.07-2.25,4.43-3.57h-16.81Z"/>
                    </g>
                </g>
            </g>
        </g>
    </g>
</svg>